<svg width="21" height="21" viewBox="0 0 21 21" fill="none" xmlns="http://www.w3.org/2000/svg">
<path d="M10.5 2.87451C14.6081 2.87451 17.955 5.82764 17.955 9.43701C17.955 13.0464 14.6081 15.9995 10.5 15.9995C9.65749 16.0145 8.8186 15.8858 8.01936 15.6189L7.03498 15.2776L6.29998 16.0126C5.48923 16.7698 4.61052 17.4508 3.67498 18.047C3.64493 18.0554 3.61316 18.0554 3.58311 18.047V17.9683C4.27631 16.1662 4.34563 14.1837 3.77998 12.3376C3.33922 11.4552 3.09304 10.4884 3.05811 9.50264C3.05811 5.86701 6.40498 2.94014 10.5131 2.94014M10.5 1.23389C5.47311 1.23389 1.40436 4.92201 1.40436 9.46326C1.434 10.665 1.72041 11.8464 2.24436 12.9283C2.65989 14.4364 2.57703 16.0385 2.00811 17.4958C1.89547 17.8398 1.89345 18.2105 2.00232 18.5558C2.1112 18.9011 2.3255 19.2036 2.61512 19.4208C2.90475 19.638 3.25514 19.759 3.61709 19.7669C3.97904 19.7747 4.33435 19.669 4.63311 19.4645C5.64526 18.8054 6.5943 18.054 7.46811 17.2201C8.44375 17.552 9.46962 17.7119 10.5 17.6926C15.5269 17.6926 19.5956 14.0045 19.5956 9.46326C19.5956 4.92201 15.5269 1.23389 10.5 1.23389Z" fill="#7F8A9C"/>
<path d="M6.82502 11.0908C7.40492 11.0908 7.87502 10.6501 7.87502 10.1064C7.87502 9.56279 7.40492 9.12207 6.82502 9.12207C6.24513 9.12207 5.77502 9.56279 5.77502 10.1064C5.77502 10.6501 6.24513 11.0908 6.82502 11.0908Z" fill="#7F8A9C"/>
<path d="M10.5 11.0908C11.0799 11.0908 11.55 10.6501 11.55 10.1064C11.55 9.56279 11.0799 9.12207 10.5 9.12207C9.92011 9.12207 9.45001 9.56279 9.45001 10.1064C9.45001 10.6501 9.92011 11.0908 10.5 11.0908Z" fill="#7F8A9C"/>
<path d="M14.175 11.0908C14.7549 11.0908 15.225 10.6501 15.225 10.1064C15.225 9.56279 14.7549 9.12207 14.175 9.12207C13.5951 9.12207 13.125 9.56279 13.125 10.1064C13.125 10.6501 13.5951 11.0908 14.175 11.0908Z" fill="#7F8A9C"/>
</svg>
