<svg width="16" height="16" viewBox="0 0 16 16" fill="none" xmlns="http://www.w3.org/2000/svg">
<path d="M15.0605 3.06038L10.121 7.99988L15.0605 12.9394C15.2038 13.0777 15.318 13.2433 15.3967 13.4263C15.4753 13.6093 15.5166 13.8061 15.5184 14.0053C15.5201 14.2044 15.4822 14.402 15.4067 14.5863C15.3313 14.7707 15.2199 14.9381 15.0791 15.079C14.9383 15.2198 14.7708 15.3312 14.5864 15.4066C14.4021 15.482 14.2046 15.52 14.0054 15.5183C13.8062 15.5165 13.6094 15.4751 13.4264 15.3965C13.2434 15.3179 13.0779 15.2036 12.9395 15.0604L8 10.1209L3.0605 15.0604C2.92213 15.2036 2.75661 15.3179 2.57361 15.3965C2.3906 15.4751 2.19377 15.5165 1.9946 15.5183C1.79543 15.52 1.59791 15.482 1.41357 15.4066C1.22922 15.3312 1.06175 15.2198 0.920907 15.079C0.780068 14.9381 0.668688 14.7707 0.593267 14.5863C0.517846 14.402 0.479893 14.2044 0.481624 14.0053C0.483355 13.8061 0.524734 13.6093 0.603348 13.4263C0.681961 13.2433 0.796235 13.0777 0.9395 12.9394L5.879 7.99988L0.9395 3.06038C0.796235 2.92201 0.681961 2.75649 0.603348 2.57348C0.524734 2.39048 0.483355 2.19365 0.481624 1.99448C0.479893 1.79531 0.517846 1.59779 0.593267 1.41345C0.668688 1.2291 0.780068 1.06162 0.920907 0.920785C1.06175 0.779946 1.22922 0.668566 1.41357 0.593145C1.59791 0.517723 1.79543 0.479771 1.9946 0.481502C2.19377 0.483233 2.3906 0.524612 2.57361 0.603226C2.75661 0.681839 2.92213 0.796113 3.0605 0.939378L8 5.87888L12.9395 0.939378C13.0779 0.796113 13.2434 0.681839 13.4264 0.603226C13.6094 0.524612 13.8062 0.483233 14.0054 0.481502C14.2046 0.479771 14.4021 0.517723 14.5864 0.593145C14.7708 0.668566 14.9383 0.779946 15.0791 0.920785C15.2199 1.06162 15.3313 1.2291 15.4067 1.41345C15.4822 1.59779 15.5201 1.79531 15.5184 1.99448C15.5166 2.19365 15.4753 2.39048 15.3967 2.57348C15.318 2.75649 15.2038 2.92201 15.0605 3.06038Z" fill="#EA5C5C"/>
</svg>
