<svg width="12" height="12" viewBox="0 0 12 12" fill="none" xmlns="http://www.w3.org/2000/svg">
<path d="M3 11H9C9.39782 11 9.77936 10.842 10.0607 10.5607C10.342 10.2794 10.5 9.89782 10.5 9.5V3.5C10.5 3.23478 10.3946 2.98043 10.2071 2.79289C10.0196 2.60536 9.76522 2.5 9.5 2.5H8.5V1.5C8.5 1.36739 8.44732 1.24021 8.35355 1.14645C8.25979 1.05268 8.13261 1 8 1C7.86739 1 7.74021 1.05268 7.64645 1.14645C7.55268 1.24021 7.5 1.36739 7.5 1.5V2.5H4.5V1.5C4.5 1.36739 4.44732 1.24021 4.35355 1.14645C4.25979 1.05268 4.13261 1 4 1C3.86739 1 3.74021 1.05268 3.64645 1.14645C3.55268 1.24021 3.5 1.36739 3.5 1.5V2.5H2.5C2.23478 2.5 1.98043 2.60536 1.79289 2.79289C1.60536 2.98043 1.5 3.23478 1.5 3.5V9.5C1.5 9.89782 1.65804 10.2794 1.93934 10.5607C2.22064 10.842 2.60218 11 3 11ZM2.5 6.25C2.5 6.1837 2.52634 6.12011 2.57322 6.07322C2.62011 6.02634 2.6837 6 2.75 6H9.25C9.3163 6 9.37989 6.02634 9.42678 6.07322C9.47366 6.12011 9.5 6.1837 9.5 6.25V9.5C9.5 9.63261 9.44732 9.75979 9.35355 9.85355C9.25979 9.94732 9.13261 10 9 10H3C2.86739 10 2.74021 9.94732 2.64645 9.85355C2.55268 9.75979 2.5 9.63261 2.5 9.5V6.25Z" fill="#7F8A9C"/>
</svg>
