<svg width="12" height="12" viewBox="0 0 12 12" fill="none" xmlns="http://www.w3.org/2000/svg">
<path d="M3 7.5V9.75H10.5V4.5H9V3.75H10.7692C10.9365 3.75 10.9973 3.76725 11.058 3.80025C11.1187 3.83208 11.1683 3.88149 11.2005 3.942C11.2327 4.00275 11.25 4.0635 11.25 4.23075V10.0192C11.25 10.1865 11.2327 10.2473 11.1997 10.308C11.1679 10.3687 11.1185 10.4183 11.058 10.4505C10.9973 10.4827 10.9365 10.5 10.7692 10.5H2.73075C2.5635 10.5 2.50275 10.4827 2.442 10.4497C2.38132 10.4179 2.33165 10.3685 2.2995 10.308C2.268 10.2473 2.25 10.1865 2.25 10.02V7.5H3Z" fill="#7F8A9C"/>
<path d="M9 2.25H1.5V7.5H9V2.25ZM9.75 1.98075V7.76925C9.75 7.9365 9.73275 7.99725 9.69975 8.058C9.66792 8.11868 9.61851 8.16835 9.558 8.2005C9.49725 8.23275 9.4365 8.25 9.26925 8.25H1.23075C1.0635 8.25 1.00275 8.23275 0.942 8.19975C0.881319 8.16791 0.831654 8.11851 0.7995 8.058C0.768 7.99725 0.75 7.9365 0.75 7.77V1.98075C0.75 1.8135 0.76725 1.75275 0.80025 1.692C0.832085 1.63132 0.881488 1.58165 0.942 1.5495C1.00275 1.518 1.0635 1.5 1.23 1.5H9.2685C9.43575 1.5 9.4965 1.51725 9.55725 1.55025C9.61793 1.58208 9.66759 1.63149 9.69975 1.692C9.732 1.75275 9.74925 1.8135 9.74925 1.98075H9.75Z" fill="#7F8A9C"/>
<path d="M5.25 6.75C4.75272 6.75 4.27581 6.55246 3.92417 6.20083C3.57254 5.84919 3.375 5.37228 3.375 4.875C3.375 4.37772 3.57254 3.90081 3.92417 3.54917C4.27581 3.19754 4.75272 3 5.25 3C5.74728 3 6.22419 3.19754 6.57583 3.54917C6.92746 3.90081 7.125 4.37772 7.125 4.875C7.125 5.37228 6.92746 5.84919 6.57583 6.20083C6.22419 6.55246 5.74728 6.75 5.25 6.75ZM5.25 6C5.54837 6 5.83452 5.88147 6.0455 5.6705C6.25647 5.45952 6.375 5.17337 6.375 4.875C6.375 4.57663 6.25647 4.29048 6.0455 4.0795C5.83452 3.86853 5.54837 3.75 5.25 3.75C4.95163 3.75 4.66548 3.86853 4.4545 4.0795C4.24353 4.29048 4.125 4.57663 4.125 4.875C4.125 5.17337 4.24353 5.45952 4.4545 5.6705C4.66548 5.88147 4.95163 6 5.25 6Z" fill="#7F8A9C"/>
</svg>
