<svg width="20" height="20" viewBox="0 0 20 20" fill="none" xmlns="http://www.w3.org/2000/svg">
<path fill-rule="evenodd" clip-rule="evenodd" d="M3.33332 9.1665C3.33332 5.94485 5.945 3.33317 9.16666 3.33317C12.3883 3.33317 15 5.94485 15 9.1665C15 12.3882 12.3883 14.9998 9.16666 14.9998C5.945 14.9998 3.33332 12.3882 3.33332 9.1665ZM9.16666 1.6665C5.02452 1.6665 1.66666 5.02437 1.66666 9.1665C1.66666 13.3087 5.02452 16.6665 9.16666 16.6665C10.9375 16.6665 12.565 16.0528 13.8481 15.0264L16.9107 18.0891C17.2362 18.4145 17.7638 18.4145 18.0892 18.0891C18.4147 17.7637 18.4147 17.236 18.0892 16.9106L15.0266 13.8479C16.0529 12.5648 16.6667 10.9373 16.6667 9.1665C16.6667 5.02437 13.3088 1.6665 9.16666 1.6665Z" fill="#7F8A9C"/>
</svg>
