<svg width="10" height="10" viewBox="0 0 10 10" fill="none" xmlns="http://www.w3.org/2000/svg">
<path d="M5.83333 8.54183H4.16666C4.08411 8.54075 4.00526 8.5075 3.94688 8.44912C3.88851 8.39075 3.85524 8.31187 3.85416 8.22933V5.00016L1.62499 1.95433C1.58976 1.90853 1.56831 1.85363 1.56314 1.79607C1.55797 1.73851 1.56931 1.68068 1.59583 1.62933C1.62239 1.57813 1.66243 1.53516 1.71163 1.50505C1.76083 1.47494 1.81731 1.45885 1.87499 1.4585H8.12499C8.18266 1.45885 8.23916 1.47494 8.28837 1.50505C8.33753 1.53516 8.37758 1.57813 8.40416 1.62933C8.43066 1.68068 8.44199 1.73851 8.43683 1.79607C8.43166 1.85363 8.41024 1.90853 8.37499 1.95433L6.14583 5.00016V8.22933C6.14474 8.31187 6.11149 8.39075 6.05312 8.44912C5.99474 8.5075 5.91587 8.54075 5.83333 8.54183ZM4.47916 7.91683H5.52083V4.896C5.52049 4.82962 5.54249 4.76504 5.58333 4.71266L7.49999 2.0835H2.49999L4.42499 4.71266C4.46583 4.76504 4.48783 4.82962 4.48749 4.896L4.47916 7.91683Z" fill="#7F8A9C"/>
</svg>
